<?xml version="1.0" standalone="no"?>
<!DOCTYPE svg PUBLIC "-//W3C//DTD SVG 20010904//EN"
 "http://www.w3.org/TR/2001/REC-SVG-20010904/DTD/svg10.dtd">
<svg version="1.0" xmlns="http://www.w3.org/2000/svg"
 width="904.000000pt" height="904.000000pt" viewBox="0 0 904.000000 904.000000"
 preserveAspectRatio="xMidYMid meet">
<metadata>
Created by potrace 1.11, written by Peter Selinger 2001-2013
</metadata>
<g transform="translate(0.000000,904.000000) scale(0.100000,-0.100000)"
fill="#000000" stroke="none">
<path d="M707 9013 c-38 -8 -93 -23 -123 -34 -29 -11 -56 -20 -59 -20 -2 0
-33 -16 -67 -36 -337 -195 -508 -556 -436 -923 6 -36 13 -67 13 -70 4 -22 42
-124 60 -160 35 -67 116 -179 171 -234 123 -122 317 -217 490 -241 50 -7 212
-7 244 0 14 3 39 8 55 10 233 40 470 219 592 445 25 46 72 168 79 205 1 6 5
26 9 45 11 58 14 233 4 286 -5 27 -11 60 -14 72 -8 46 -38 128 -71 192 -174
347 -571 540 -947 463z"/>
<path d="M4400 9024 c-256 -49 -448 -167 -588 -360 -57 -78 -122 -216 -137
-289 -18 -89 -23 -139 -23 -222 -1 -424 319 -794 743 -858 43 -6 205 -7 245
-1 363 56 635 303 729 661 22 84 30 244 17 323 -3 17 -8 44 -11 60 -9 56 -48
160 -87 234 -108 203 -310 364 -538 428 -74 21 -289 35 -350 24z"/>
<path d="M8005 9015 c-359 -67 -648 -367 -701 -728 -5 -28 -8 -95 -7 -148 6
-413 310 -767 721 -839 419 -73 843 181 976 586 32 99 41 165 40 295 -5 320
-192 615 -483 759 -161 80 -368 108 -546 75z"/>
<path d="M765 5389 c-436 -60 -758 -427 -757 -864 1 -659 694 -1075 1280 -768
407 213 574 723 374 1143 -107 225 -307 394 -552 464 -99 28 -245 39 -345 25z"/>
<path d="M4380 5384 c-338 -58 -595 -288 -697 -621 -23 -77 -26 -106 -27 -233
-1 -167 13 -236 75 -368 142 -307 440 -502 769 -505 162 -2 252 16 376 73 106
49 185 103 262 180 380 381 327 1007 -113 1326 -175 127 -427 185 -645 148z"/>
<path d="M8035 5384 c-100 -15 -173 -38 -250 -76 -156 -79 -277 -189 -364
-331 -226 -369 -138 -863 200 -1131 118 -93 272 -162 407 -183 61 -9 213 -9
274 0 101 16 249 71 333 126 62 41 64 42 144 121 130 128 198 255 248 465 2
11 5 69 7 130 3 140 -21 264 -74 380 -79 171 -221 322 -384 409 -165 87 -357
119 -541 90z"/>
<path d="M867 1764 c-1 -1 -32 -4 -69 -7 -401 -34 -734 -353 -785 -752 -55
-437 221 -847 647 -960 89 -24 294 -29 383 -10 301 64 539 263 645 540 46 121
56 178 56 320 0 189 -40 320 -141 474 -151 227 -375 361 -651 389 -45 4 -84 7
-85 6z"/>
<path d="M4405 1753 c-354 -52 -633 -297 -727 -639 -31 -115 -32 -327 -1 -439
45 -164 118 -290 237 -407 222 -219 528 -296 851 -215 143 36 324 156 431 285
63 76 146 239 168 327 38 154 38 298 1 439 -26 99 -87 236 -129 287 -11 15
-34 44 -51 64 -60 76 -177 166 -280 215 -115 56 -199 79 -305 86 -41 3 -82 6
-90 8 -8 1 -55 -3 -105 -11z"/>
<path d="M8189 1766 c-2 -2 -44 -6 -94 -10 -213 -14 -384 -95 -545 -256 -107
-107 -171 -210 -214 -345 -181 -569 252 -1147 849 -1134 224 5 430 91 588 246
93 91 161 197 218 338 38 95 55 284 36 421 -16 120 -74 260 -151 368 -145 202
-370 335 -611 362 -33 3 -63 8 -66 10 -3 2 -8 2 -10 0z"/>
</g>
</svg>
